{"title":"That Thing You Do 1996 BRRip 720p x264 AAC - PRiSTiNE [P2PDL]","uid":8370766,"size":868079976,"categoryP":"video","categoryS":"hd___movies","magnet":"?xt=urn:btih:90edadc3a2282fad407e19f485bcdbfccf6686bd&amp;dn=That+Thing+You+Do+1996+BRRip+720p+x264+AAC+-+PRiSTiNE+%5BP2PDL%5D&amp;tr=udp%3A%2F%2Ftracker.openbittorrent.com%3A80&amp;tr=udp%3A%2F%2Fopen.demonii.com%3A1337&amp;tr=udp%3A%2F%2Ftracker.coppersurfer.tk%3A6969&amp;tr=udp%3A%2F%2Fexodus.desync.com%3A6969","seeders":18,"leechers":3,"uploader":"Vitamin_X","files":-1,"time":1365908778,"description":"_________________________  Visit us at _________________________\n  &lt;a href=&quot;\nhttp://p2pdl.com&quot; rel=&quot;nofollow&quot; target=&quot;_NEW&quot;&gt;\nhttp://p2pdl.com&lt;/a&gt;  ____________________________ &lt;a href=&quot; http://p2pdl.com&quot; rel=&quot;nofollow&quot; target=&quot;_NEW&quot;&gt; http://p2pdl.com&lt;/a&gt;\n\n\nThat Thing You Do 1996 BRRip 720p x264 AAC - PRiSTiNE [P2PDL]\n\nGenre: Comedy | Drama | Music\nPlot: A Pennsylvania band scores a hit in 1964 and rides \nthe star-making machinery as long as it can, with lots \nof help from its manager.\nDirector: Tom Hanks\nStars: Tom Everett Scott, Liv Tyler, Tom Hanks\nRated: Rated PG for some language\n\nInfo: &lt;a href=&quot;\nhttp://www.imdb.com/title/tt0117887/&quot; rel=&quot;nofollow&quot; target=&quot;_NEW&quot;&gt;\nhttp://www.imdb.com/title/tt0117887/&lt;/a&gt;\n\nGeneral\nComplete name                  : That Thing You Do 1996 BRRip 720p x264 AAC - PRiSTiNE.mp4\nFormat                         : MPEG-4\nFormat profile                 : Base Media\nFile size                      : 824 MiB\nDuration                       : 2h 27mn\nOverall bit rate mode          : Variable\nOverall bit rate               : 781 Kbps\n\nVideo\nFormat                         : AVC\nFormat/Info                    : Advanced Video Codec\nFormat profile                 : High &lt;a class=&quot;__cf_email__&quot; href=&quot;/cdn-cgi/l/email-protection&quot; data-cfemail=&quot;a99899e9e59d8798&quot;&gt;[email&amp;#160;protected]&lt;/a&gt;&lt;script cf-hash='f9e31' type=&quot;text/javascript&quot;&gt;\n/* &lt;![CDATA[ */!function(){try{var t=&quot;currentScript&quot;in document?document.currentScript:function(){for(var t=document.getElementsByTagName(&quot;script&quot;),e=t.length;e--;)if(t[e].getAttribute(&quot;cf-hash&quot;))return t[e]}();if(t&amp;&amp;t.previousSibling){var e,r,n,i,c=t.previousSibling,a=c.getAttribute(&quot;data-cfemail&quot;);if(a){for(e=&quot;&quot;,r=parseInt(a.substr(0,2),16),n=2;a.length-n;n+=2)i=parseInt(a.substr(n,2),16)^r,e+=String.fromCharCode(i);e=document.createTextNode(e),c.parentNode.replaceChild(e,c)}}}catch(u){}}();/* ]]&gt; */&lt;/script&gt;\nBit rate                       : 699 Kbps\nWidth                          : 1 280 pixels\nHeight                         : 688 pixels\nDisplay aspect ratio           : 1.85:1\nFrame rate mode                : Constant\nFrame rate                     : 23.976 fps\nBit depth                      : 10 bits\nStream size                    : 737 MiB (89%)\nWriting library                : x264 core 130 r2273 b3065e6\n\nAudio\nFormat                         : AAC\nFormat/Info                    : Advanced Audio Codec\nBit rate                       : 79.7 Kbps\nChannel(s)                     : 2 channels\nChannel positions              : Front: L R\nSampling rate                  : 48.0 KHz / 24.0 KHz\nStream size                    : 84.1 MiB (10%)\nLanguage                       : English\n\nSubtitle                       : Yes (English)\nSource                         : Extended.Cut.720p.BluRay.DD5.1.x264-HiDt (Thanks)\n\nScreens:\n &lt;a href=&quot;\nhttp://www.ultraimg.com/images/KgMIQ.jpg&quot; rel=&quot;nofollow&quot; target=&quot;_NEW&quot;&gt;\nhttp://www.ultraimg.com/images/KgMIQ.jpg&lt;/a&gt; &lt;a href=&quot;\nhttp://www.ultraimg.com/images/6QT9d.jpg&quot; rel=&quot;nofollow&quot; target=&quot;_NEW&quot;&gt;\nhttp://www.ultraimg.com/images/6QT9d.jpg&lt;/a&gt; &lt;a href=&quot;\nhttp://www.ultraimg.com/images/EI4nW.jpg&quot; rel=&quot;nofollow&quot; target=&quot;_NEW&quot;&gt;\nhttp://www.ultraimg.com/images/EI4nW.jpg&lt;/a&gt; &lt;a href=&quot;\nhttp://www.ultraimg.com/images/cVRj.jpg&quot; rel=&quot;nofollow&quot; target=&quot;_NEW&quot;&gt;\nhttp://www.ultraimg.com/images/cVRj.jpg&lt;/a&gt; &lt;a href=&quot;\nhttp://www.ultraimg.com/images/rOaWE.jpg&quot; rel=&quot;nofollow&quot; target=&quot;_NEW&quot;&gt;\nhttp://www.ultraimg.com/images/rOaWE.jpg&lt;/a&gt;\n\n----------------------------------------------------------------------------------------------------\n\n\nEncoded using revolutionary 10bit encoding, which enables us to provide you more crispier \nand sharper images at small sizes, just make sure you follow our instructions without a fault.\nRecommend to you to use latest version of VLC player. Install K-Lite Codec Pack or shark007 codecs\nin case of any kind of problem in playback (For non-VLC Media Player users). Alternatively, install\nCore AVC codecs, the fastest decoder that there is coupled with Community Center Codec Pack and play\non Windows Media Player Classic. Check sample to be sure.\nEnjoy!\n\nEncoder Notes:Looking For Early Access To Anything You Can Provide DVDScr, R5, DVDR, BluRay, Direct\nAudio, Music Releases and Seedboxes. We require dedicated servers, so as to do more \nand fast releases of movies.\nIf You Got anything to offer please contact us at &quot;&lt;a class=&quot;__cf_email__&quot; href=&quot;/cdn-cgi/l/email-protection&quot; data-cfemail=&quot;bccccedbfcd4c9cfd492dfd3d1&quot;&gt;[email&amp;#160;protected]&lt;/a&gt;&lt;script cf-hash='f9e31' type=&quot;text/javascript&quot;&gt;\n/* &lt;![CDATA[ */!function(){try{var t=&quot;currentScript&quot;in document?document.currentScript:function(){for(var t=document.getElementsByTagName(&quot;script&quot;),e=t.length;e--;)if(t[e].getAttribute(&quot;cf-hash&quot;))return t[e]}();if(t&amp;&amp;t.previousSibling){var e,r,n,i,c=t.previousSibling,a=c.getAttribute(&quot;data-cfemail&quot;);if(a){for(e=&quot;&quot;,r=parseInt(a.substr(0,2),16),n=2;a.length-n;n+=2)i=parseInt(a.substr(n,2),16)^r,e+=String.fromCharCode(i);e=document.createTextNode(e),c.parentNode.replaceChild(e,c)}}}catch(u){}}();/* ]]&gt; */&lt;/script&gt;&quot;.\n\nFace book Fan Page:   &lt;a href=&quot;\nhttp://www.fb.me/p2pdl&quot; rel=&quot;nofollow&quot; target=&quot;_NEW&quot;&gt;\nhttp://www.fb.me/p2pdl&lt;/a&gt;","torrent":{"xt":"urn:btih:90edadc3a2282fad407e19f485bcdbfccf6686bd","amp;dn":"That+Thing+You+Do+1996+BRRip+720p+x264+AAC+-+PRiSTiNE+%5BP2PDL%5D","amp;tr":["udp%3A%2F%2Ftracker.openbittorrent.com%3A80","udp%3A%2F%2Fopen.demonii.com%3A1337","udp%3A%2F%2Ftracker.coppersurfer.tk%3A6969","udp%3A%2F%2Fexodus.desync.com%3A6969"],"infoHash":"90edadc3a2282fad407e19f485bcdbfccf6686bd","infoHashBuffer":{"type":"Buffer","data":[144,237,173,195,162,40,47,173,64,126,25,244,133,188,219,252,207,102,134,189]},"announce":[],"urlList":[]}}